<svg viewBox="0 0 28 28" xmlns="http://www.w3.org/2000/svg">
  <path fill-rule="evenodd" clip-rule="evenodd" fill="currentColor"
    d="M8.637 4C5.422 4 3 6.393 3 9.455c0 1.847 1.23 4.143 3.446 6.777 2.026 2.408 4.733 4.937 7.621 7.446 2.881-2.507 5.556-5.034 7.55-7.44C23.795 13.607 25 11.307 25 9.454 25 6.368 22.686 4 19.498 4c-1.763 0-3.54.815-4.676 2.121a1 1 0 0 1-1.509 0C12.176 4.815 10.4 4 8.637 4ZM1 9.455C1 5.236 4.37 2 8.637 2c1.98 0 3.952.763 5.43 2.054C15.548 2.763 17.518 2 19.498 2 23.793 2 27 5.265 27 9.455c0 2.606-1.624 5.38-3.843 8.058-2.254 2.721-5.29 5.537-8.437 8.245a1 1 0 0 1-1.305 0c-3.144-2.705-6.213-5.52-8.5-8.239C2.665 14.845 1 12.068 1 9.455Z" />
</svg>