<svg version="1.1" id="Слой_1" xmlns="http://www.w3.org/2000/svg" xmlns:xlink="http://www.w3.org/1999/xlink" x="0px" y="0px"
	 viewBox="0 0 28 28" style="enable-background:new 0 0 28 28;" xml:space="preserve">
<path class="st0" d="M8.6,4C5.4,4,3,6.4,3,9.5c0,1.8,1.2,4.1,3.4,6.8c2,2.4,4.7,4.9,7.6,7.4c2.9-2.5,5.6-5,7.6-7.4
	c2.2-2.6,3.4-4.9,3.4-6.8C25,6.4,22.7,4,19.5,4c-1.8,0-3.5,0.8-4.7,2.1c-0.4,0.4-1,0.5-1.4,0.1l-0.1-0.1C12.2,4.8,10.4,4,8.6,4z"/>
<path class="st0" d="M1,9.5C1,5.2,4.4,2,8.6,2c2,0,4,0.8,5.4,2.1C15.5,2.8,17.5,2,19.5,2C23.8,2,27,5.3,27,9.5
	c0,2.6-1.6,5.4-3.8,8.1c-2.3,2.7-5.3,5.5-8.4,8.2c-0.4,0.3-0.9,0.3-1.3,0c-3.1-2.7-6.2-5.5-8.5-8.2C2.7,14.8,1,12.1,1,9.5z"/>
</svg>
