<svg width="60" height="60" viewBox="0 0 60 60" fill="none" xmlns="http://www.w3.org/2000/svg">
<g filter="url(#filter0_b_282_3661)">
<path fill-rule="evenodd" clip-rule="evenodd" d="M18.2847 21.637C17.5194 21.9542 16.6419 21.5909 16.3247 20.8256C16.0076 20.0603 16.3709 19.1828 17.1362 18.8656C17.4846 18.7212 18.0247 18.5395 18.834 18.3547L18.834 18.3547C21.0854 17.8406 24.5525 17.5 29.9606 17.5C35.3687 17.5 38.8358 17.8406 41.0872 18.3547C41.8965 18.5395 42.4366 18.7212 42.785 18.8656C43.5504 19.1828 43.9136 20.0603 43.5965 20.8256C43.2793 21.5909 42.4018 21.9542 41.6365 21.637C41.4739 21.5696 41.0997 21.4348 40.4193 21.2794C38.4906 20.839 35.2836 20.5 29.9606 20.5C24.6376 20.5 21.4306 20.839 19.5019 21.2794C18.8215 21.4348 18.4473 21.5696 18.2847 21.637ZM15.9878 29.9512C15.9878 29.1227 16.6594 28.4512 17.4878 28.4512H42.5122C43.3406 28.4512 44.0122 29.1227 44.0122 29.9512C44.0122 30.7796 43.3406 31.4512 42.5122 31.4512H17.4878C16.6594 31.4512 15.9878 30.7796 15.9878 29.9512ZM16.3247 39.1747C16.0076 39.94 16.3708 40.8175 17.1361 41.1347C17.4846 41.2791 18.0247 41.4608 18.8341 41.6456C21.0855 42.1598 24.5525 42.5004 29.9606 42.5004C35.3687 42.5004 38.8357 42.1598 41.0872 41.6457C41.8965 41.4609 42.4366 41.2792 42.785 41.1348C43.5503 40.8176 43.9136 39.9401 43.5964 39.1748C43.2793 38.4095 42.4018 38.0462 41.6364 38.3634C41.4739 38.4307 41.0997 38.5656 40.4193 38.7209C38.4906 39.1614 35.2836 39.5004 29.9606 39.5004C24.6376 39.5004 21.4306 39.1613 19.5019 38.7209C18.8215 38.5656 18.4474 38.4307 18.2848 38.3633C17.5195 38.0461 16.6419 38.4094 16.3247 39.1747Z" fill="#CB11AB"/>
</g>
<defs>
<filter id="filter0_b_282_3661" x="-12.0122" y="-10.5" width="84.0244" height="81.0004" filterUnits="userSpaceOnUse" color-interpolation-filters="sRGB">
<feFlood flood-opacity="0" result="BackgroundImageFix"/>
<feGaussianBlur in="BackgroundImageFix" stdDeviation="14"/>
<feComposite in2="SourceAlpha" operator="in" result="effect1_backgroundBlur_282_3661"/>
<feBlend mode="normal" in="SourceGraphic" in2="effect1_backgroundBlur_282_3661" result="shape"/>
</filter>
</defs>
</svg>
