<svg xmlns="http://www.w3.org/2000/svg" width="900" height="60" viewBox="0 0 900 60" fill="none">
    <g filter="url(#filter0_b_26_279)">
    <mask id="path-1-inside-1_26_279" fill="white">
        <path fill-rule="evenodd" clip-rule="evenodd" d="M0 30.0029C0 6.00293 5.99976 0.00292969 30 0.00292969L30 0.00588608L870 0.00584936C894 0.00586115 900 6.00586 900 30.0059C900 54.0061 894 60.0059 870 60.0058L30 60.0059L30 60.0029C5.99976 60.0029 0 54.0032 0 30.0029Z"/>
    </mask>
    <path fill-rule="evenodd" clip-rule="evenodd" d="M0 30.0029C0 6.00293 5.99976 0.00292969 30 0.00292969L30 0.00588608L870 0.00584936C894 0.00586115 900 6.00586 900 30.0059C900 54.0061 894 60.0059 870 60.0058L30 60.0059L30 60.0029C5.99976 60.0029 0 54.0032 0 30.0029Z" fill="white"/>
    <path d="M30 0.00292969L33 0.00680065L33.0039 -2.99707H30V0.00292969ZM30 0.00588608L27 0.00201511L26.9961 3.00589L30 3.00589L30 0.00588608ZM870 0.00584936L870 -2.99415L870 -2.99415L870 0.00584936ZM870 60.0058L870 57.0058L870 57.0058L870 60.0058ZM30 60.0059L27 60.0078L27.002 63.0059L30 63.0059L30 60.0059ZM30 60.0029L33 60.001L32.998 57.0029H30V60.0029ZM30 -2.99707C18.0213 -2.99707 9.33258 -1.57242 3.87858 3.88161C-1.57541 9.33564 -3 18.0244 -3 30.0029H3C3 17.9815 4.57529 11.6702 8.12124 8.12424C11.6672 4.57828 17.9784 3.00293 30 3.00293V-2.99707ZM33 0.00975704L33 0.00680065L27 -0.000941277L27 0.00201511L33 0.00975704ZM870 -2.99415L30 -2.99411L30 3.00589L870 3.00585L870 -2.99415ZM903 30.0059C903 18.0273 901.575 9.33857 896.121 3.88454C890.667 -1.56949 881.979 -2.99414 870 -2.99415L870 3.00585C882.022 3.00586 888.333 4.5812 891.879 8.12717C895.425 11.6731 897 17.9844 897 30.0059H903ZM870 63.0058C881.979 63.0058 890.667 61.5813 896.121 56.1273C901.575 50.6733 903 41.9845 903 30.0059H897C897 42.0274 895.425 48.3387 891.879 51.8846C888.333 55.4306 882.022 57.0058 870 57.0058L870 63.0058ZM30 63.0059L870 63.0058L870 57.0058L30 57.0059L30 63.0059ZM27 60.0049L27 60.0078L33 60.0039L33 60.001L27 60.0049ZM-3 30.0029C-3 41.9816 -1.57541 50.6703 3.87859 56.1243C9.33259 61.5783 18.0214 63.0029 30 63.0029V57.0029C17.9784 57.0029 11.6672 55.4276 8.12123 51.8817C4.57529 48.3358 3 42.0245 3 30.0029H-3Z" fill="url(#paint0_linear_26_279)" mask="url(#path-1-inside-1_26_279)"/>
    </g>
    <defs>
    <filter id="filter0_b_26_279" x="-28" y="-27.9971" width="956" height="116.003" filterUnits="userSpaceOnUse" color-interpolation-filters="sRGB">
        <feFlood flood-opacity="0" result="BackgroundImageFix"/>
        <feGaussianBlur in="BackgroundImageFix" stdDeviation="14"/>
        <feComposite in2="SourceAlpha" operator="in" result="effect1_backgroundBlur_26_279"/>
        <feBlend mode="normal" in="SourceGraphic" in2="effect1_backgroundBlur_26_279" result="shape"/>
    </filter>
    <linearGradient id="paint0_linear_26_279" x1="655.435" y1="0.00293099" x2="692.627" y2="122.809" gradientUnits="userSpaceOnUse">
        <stop stop-color="#DA15B8"/>
        <stop offset="1" stop-color="#8D06CC"/>
    </linearGradient>
    </defs>
</svg>