<svg xmlns="http://www.w3.org/2000/svg" width="40" height="40" viewBox="0 0 40 40" fill="none">
  <path fill-rule="evenodd" clip-rule="evenodd" d="M4.30176 14.6853C4.30176 8.40157 9.39571 3.30762 15.6794 3.30762C21.9631 3.30762 27.0571 8.40157 27.0571 14.6853C27.0571 17.1555 26.2702 19.4411 24.9333 21.3062L24.8097 21.4786L35.6982 32.3671L33.3609 34.7044L22.4724 23.8159L22.3 23.9394C20.435 25.2761 18.1495 26.0629 15.6794 26.0629C9.39571 26.0629 4.30176 20.969 4.30176 14.6853ZM15.6794 6.61303C11.2212 6.61303 7.60717 10.2271 7.60717 14.6853C7.60717 19.1435 11.2212 22.7575 15.6794 22.7575C20.1376 22.7575 23.7517 19.1435 23.7517 14.6853C23.7517 10.2271 20.1376 6.61303 15.6794 6.61303Z" fill="#CB11AB"/>
</svg>