<svg width="60" height="60" viewBox="0 0 60 60" fill="none" xmlns="http://www.w3.org/2000/svg">
<path fill-rule="evenodd" clip-rule="evenodd" d="M14.3018 24.6824C14.3018 18.3986 19.3957 13.3047 25.6794 13.3047C31.9631 13.3047 37.0571 18.3986 37.0571 24.6824C37.0571 27.1525 36.2702 29.4382 34.9333 31.3033L34.8097 31.4757L45.6982 42.3642L43.3609 44.7014L32.4724 33.8129L32.3 33.9365C30.435 35.2732 28.1495 36.06 25.6794 36.06C19.3957 36.06 14.3018 30.9661 14.3018 24.6824ZM25.6794 16.6101C21.2212 16.6101 17.6072 20.2242 17.6072 24.6824C17.6072 29.1405 21.2212 32.7546 25.6794 32.7546C30.1376 32.7546 33.7517 29.1405 33.7517 24.6824C33.7517 20.2242 30.1376 16.6101 25.6794 16.6101Z" fill="#CB11AB"/>
</svg>
