<svg xmlns="http://www.w3.org/2000/svg" width="40" height="40" viewBox="0 0 40 40" fill="none">
  <g filter="url(#filter0_b_32_291)">
    <path fill-rule="evenodd" clip-rule="evenodd" d="M8.28474 11.6399C7.51944 11.9571 6.64191 11.5938 6.32474 10.8285C6.00757 10.0632 6.37085 9.18571 7.13616 8.86853C7.48463 8.72411 8.02469 8.54246 8.83401 8.35765L8.83401 8.35765C11.0854 7.84355 14.5525 7.50293 19.9606 7.50293C25.3687 7.50293 28.8358 7.84355 31.0872 8.35765C31.8965 8.54246 32.4366 8.72412 32.785 8.86854C33.5504 9.18571 33.9136 10.0632 33.5965 10.8285C33.2793 11.5938 32.4018 11.9571 31.6365 11.64C31.4739 11.5726 31.0997 11.4377 30.4193 11.2824C28.4906 10.842 25.2836 10.5029 19.9606 10.5029C14.6376 10.5029 11.4306 10.842 9.50186 11.2824C8.82149 11.4377 8.44733 11.5726 8.28474 11.6399ZM5.98779 19.9541C5.98779 19.1257 6.65937 18.4541 7.48779 18.4541H32.5122C33.3406 18.4541 34.0122 19.1257 34.0122 19.9541C34.0122 20.7825 33.3406 21.4541 32.5122 21.4541H7.48779C6.65937 21.4541 5.98779 20.7825 5.98779 19.9541ZM6.32475 29.1776C6.00756 29.9429 6.37084 30.8205 7.13614 31.1377C7.48459 31.2821 8.02467 31.4638 8.83406 31.6486C11.0855 32.1627 14.5525 32.5033 19.9606 32.5033C25.3687 32.5033 28.8357 32.1627 31.0872 31.6486C31.8965 31.4638 32.4366 31.2821 32.785 31.1377C33.5503 30.8205 33.9136 29.943 33.5964 29.1777C33.2793 28.4124 32.4018 28.0491 31.6364 28.3663C31.4739 28.4337 31.0997 28.5685 30.4193 28.7239C28.4906 29.1643 25.2836 29.5033 19.9606 29.5033C14.6376 29.5033 11.4306 29.1643 9.50191 28.7239C8.82152 28.5685 8.44735 28.4336 8.28476 28.3663C7.51946 28.0491 6.64193 28.4123 6.32475 29.1776Z" fill="#CB11AB"/>
  </g>
  <defs>
    <filter id="filter0_b_32_291" x="-22.0122" y="-20.4971" width="84.0244" height="81.0004" filterUnits="userSpaceOnUse" color-interpolation-filters="sRGB">
      <feFlood flood-opacity="0" result="BackgroundImageFix"/>
      <feGaussianBlur in="BackgroundImageFix" stdDeviation="14"/>
      <feComposite in2="SourceAlpha" operator="in" result="effect1_backgroundBlur_32_291"/>
      <feBlend mode="normal" in="SourceGraphic" in2="effect1_backgroundBlur_32_291" result="shape"/>
    </filter>
  </defs>
</svg>