<svg width="32" height="32" viewBox="0 0 32 32" fill="none" xmlns="http://www.w3.org/2000/svg">
<path fill-rule="evenodd" clip-rule="evenodd" d="M0.301758 11.6824C0.301758 5.39864 5.39571 0.304688 11.6794 0.304688C17.9631 0.304688 23.0571 5.39864 23.0571 11.6824C23.0571 14.1525 22.2702 16.4382 20.9333 18.3033L20.8097 18.4757L31.6982 29.3642L29.3609 31.7014L18.4724 20.8129L18.3 20.9365C16.435 22.2732 14.1495 23.06 11.6794 23.06C5.39571 23.06 0.301758 17.9661 0.301758 11.6824ZM11.6794 3.6101C7.22124 3.6101 3.60717 7.22417 3.60717 11.6824C3.60717 16.1405 7.22124 19.7546 11.6794 19.7546C16.1376 19.7546 19.7517 16.1405 19.7517 11.6824C19.7517 7.22417 16.1376 3.6101 11.6794 3.6101Z" fill="#CB11AB"/>
</svg>
