<svg width="30" height="26" viewBox="0 0 30 26" fill="none" xmlns="http://www.w3.org/2000/svg">
<g filter="url(#filter0_b_282_3671)">
<path fill-rule="evenodd" clip-rule="evenodd" d="M3.28474 4.63702C2.51944 4.95419 1.64191 4.59091 1.32474 3.8256C1.00757 3.0603 1.37085 2.18278 2.13616 1.8656C2.48463 1.72118 3.02469 1.53953 3.83401 1.35472L3.83401 1.35472C6.08545 0.84062 9.55246 0.5 14.9606 0.5C20.3687 0.5 23.8358 0.84062 26.0872 1.35472C26.8965 1.53953 27.4366 1.72119 27.785 1.86561C28.5504 2.18278 28.9136 3.0603 28.5965 3.8256C28.2793 4.59091 27.4018 4.9542 26.6365 4.63703C26.4739 4.56964 26.0997 4.43479 25.4193 4.27944C23.4906 3.83903 20.2836 3.5 14.9606 3.5C9.63756 3.5 6.43057 3.83903 4.50186 4.27944C3.82149 4.4348 3.44733 4.56964 3.28474 4.63702ZM0.987793 12.9512C0.987793 12.1227 1.65937 11.4512 2.48779 11.4512H27.5122C28.3406 11.4512 29.0122 12.1227 29.0122 12.9512C29.0122 13.7796 28.3406 14.4512 27.5122 14.4512H2.48779C1.65937 14.4512 0.987793 13.7796 0.987793 12.9512ZM1.32475 22.1747C1.00756 22.94 1.37084 23.8175 2.13614 24.1347C2.48459 24.2791 3.02467 24.4608 3.83406 24.6456C6.08547 25.1598 9.55247 25.5004 14.9606 25.5004C20.3687 25.5004 23.8357 25.1598 26.0872 24.6457C26.8965 24.4609 27.4366 24.2792 27.785 24.1348C28.5503 23.8176 28.9136 22.9401 28.5964 22.1748C28.2793 21.4095 27.4018 21.0462 26.6364 21.3634C26.4739 21.4307 26.0997 21.5656 25.4193 21.7209C23.4906 22.1614 20.2836 22.5004 14.9606 22.5004C9.63758 22.5004 6.4306 22.1613 4.50191 21.7209C3.82152 21.5656 3.44735 21.4307 3.28476 21.3633C2.51946 21.0461 1.64193 21.4094 1.32475 22.1747Z" fill="#CB11AB"/>
</g>
<defs>
<filter id="filter0_b_282_3671" x="-27.0122" y="-27.5" width="84.0244" height="81.0004" filterUnits="userSpaceOnUse" color-interpolation-filters="sRGB">
<feFlood flood-opacity="0" result="BackgroundImageFix"/>
<feGaussianBlur in="BackgroundImageFix" stdDeviation="14"/>
<feComposite in2="SourceAlpha" operator="in" result="effect1_backgroundBlur_282_3671"/>
<feBlend mode="normal" in="SourceGraphic" in2="effect1_backgroundBlur_282_3671" result="shape"/>
</filter>
</defs>
</svg>
